<?xml version="1.0" standalone="no"?>
<!DOCTYPE svg PUBLIC "-//W3C//DTD SVG 20010904//EN"
 "http://www.w3.org/TR/2001/REC-SVG-20010904/DTD/svg10.dtd">
<svg version="1.0" xmlns="http://www.w3.org/2000/svg"
 width="1280.000000pt" height="640.000000pt" viewBox="0 0 1280.000000 640.000000"
 preserveAspectRatio="xMidYMid meet">
<g transform="translate(0.000000,640.000000) scale(0.100000,-0.100000)"
fill="#000000" stroke="none">
<path d="M9620 5481 c0 -25 6 -27 13 -6 4 8 2 17 -3 20 -6 4 -10 -3 -10 -14z"/>
<path d="M9617 5363 c-2 -4 -1 -17 3 -27 6 -19 7 -19 14 -1 7 19 -8 44 -17 28z"/>
<path d="M9621 5220 c0 -29 1 -32 10 -17 7 11 7 23 0 35 -9 14 -10 11 -10 -18z"/>
<path d="M9607 5100 c-9 -22 -17 -52 -17 -66 0 -31 -39 -202 -51 -226 -5 -9
-31 -21 -61 -27 -55 -12 -68 -23 -68 -57 0 -23 -44 -69 -76 -78 -21 -6 -21
-10 -26 -539 -3 -292 -2 -559 3 -592 4 -33 11 -279 15 -547 l7 -487 -26 -10
c-16 -6 -54 -7 -102 -2 -45 5 -92 5 -118 -1 -23 -5 -57 -7 -76 -4 -18 3 -46 2
-62 -1 l-29 -5 -2 -362 -3 -361 -32 -3 c-24 -2 -34 2 -43 17 -8 16 -21 21 -50
21 -62 0 -70 7 -70 59 0 25 -5 113 -12 194 l-12 148 -31 14 -32 13 -6 188 c-4
104 -7 345 -7 536 0 311 2 350 18 378 16 30 16 32 -1 44 -15 12 -16 25 -11
102 3 49 7 127 8 174 l1 85 -55 8 c-68 11 -80 20 -80 63 0 19 -4 34 -10 34 -5
0 -10 7 -10 17 0 15 -1 15 -18 0 -25 -23 -91 -23 -98 1 -3 9 -12 29 -20 44
-10 18 -14 62 -14 147 0 90 -3 121 -13 121 -6 0 -25 14 -40 30 -24 25 -28 38
-27 78 6 116 0 283 -10 277 -5 -3 -10 -47 -10 -96 0 -66 -4 -96 -16 -114 -13
-20 -14 -28 -4 -40 6 -8 14 -41 17 -74 5 -53 3 -60 -15 -70 -21 -11 -77 -4
-136 18 -24 10 -27 7 -46 -29 -11 -22 -33 -78 -49 -126 -34 -101 -46 -118 -59
-83 -8 20 -11 14 -17 -38 -4 -35 -3 -69 3 -80 6 -10 10 -156 11 -348 1 -181 4
-361 7 -400 5 -58 1 -83 -19 -144 -18 -54 -31 -77 -46 -83 -18 -6 -20 -11 -11
-27 7 -13 9 -112 8 -283 -3 -262 -3 -263 -25 -266 -33 -5 -59 29 -67 86 -12
90 -73 90 -85 1 -5 -38 -9 -44 -30 -44 -23 0 -26 6 -38 70 -23 119 -32 214
-32 368 -1 133 -3 152 -21 174 -17 22 -20 41 -20 123 0 53 -5 121 -10 150 -6
29 -6 58 -2 64 4 6 6 126 4 267 l-4 256 -181 12 c-100 6 -236 13 -301 14
l-119 2 2 -312 3 -313 -56 0 -56 0 0 -252 c0 -139 -4 -258 -8 -265 -8 -13
-430 -21 -451 -9 -7 5 -11 63 -11 181 l0 173 -57 52 -58 53 -151 -7 c-132 -6
-154 -5 -168 9 -14 14 -16 56 -16 333 0 257 -3 321 -14 338 -8 11 -38 30 -68
43 -29 13 -60 27 -68 32 -8 5 -52 29 -98 55 -53 30 -87 55 -92 70 -11 28 -37
31 -55 7 -13 -18 -114 -28 -345 -35 l-95 -3 -6 -720 c-4 -396 -10 -742 -14
-768 -5 -37 -11 -47 -23 -45 -9 2 -19 14 -22 28 -5 22 -11 25 -50 25 -39 0
-45 -3 -50 -25 -3 -14 -15 -29 -26 -35 -11 -5 -33 -22 -49 -37 -24 -22 -41
-28 -104 -33 -130 -10 -121 -4 -121 -94 l0 -78 -31 -7 c-17 -3 -66 -6 -109 -6
-62 0 -79 -3 -84 -16 -3 -9 -6 -58 -6 -111 0 -70 -3 -94 -12 -91 -7 3 -15 15
-18 29 -4 17 -14 25 -33 27 -25 3 -31 11 -28 37 0 6 -25 67 -56 135 l-57 125
-6 180 -5 180 -60 16 -60 16 -6 94 c-4 52 -8 159 -8 239 -1 80 -7 179 -12 220
-5 41 -13 183 -18 315 -11 276 -32 425 -62 425 -33 0 -49 28 -49 85 0 69 -23
158 -50 192 -11 14 -20 30 -20 36 0 5 -10 37 -22 69 l-21 59 -26 -80 c-14 -44
-33 -86 -42 -93 -19 -15 -26 -42 -40 -148 -9 -74 -18 -90 -51 -90 -10 0 -19
-10 -22 -22 -25 -134 -31 -198 -36 -347 -3 -119 -9 -176 -17 -178 -12 -4 -40
24 -157 161 -47 55 -76 98 -76 113 0 42 -45 54 -224 60 -198 7 -228 3 -241
-35 -6 -15 -47 -63 -93 -106 l-83 -78 -72 7 c-83 8 -87 9 -87 36 0 19 -4 20
-40 14 -26 -4 -40 -3 -40 4 0 16 -26 13 -40 -4 -9 -11 -17 -12 -32 -4 -11 6
-31 8 -44 5 -13 -4 -34 -1 -45 5 -17 9 -25 7 -44 -11 -12 -11 -40 -23 -61 -27
-74 -11 -74 -11 -74 -136 0 -75 -4 -117 -12 -125 -7 -7 -30 -12 -52 -12 -23 0
-67 -13 -108 -31 l-68 -32 -1 -191 c-1 -105 -4 -258 -8 -341 l-6 -150 -28 -3
c-19 -2 -31 -11 -37 -28 -7 -18 -17 -24 -39 -24 -34 0 -41 -16 -41 -110 0 -74
-24 -118 -55 -106 -16 6 -17 16 -12 86 10 124 5 135 -62 155 -31 9 -62 19 -69
21 -8 2 -11 11 -7 23 3 11 1 22 -5 26 -7 4 -10 152 -10 445 l0 438 -23 6 c-24
6 -57 66 -57 104 0 26 -54 52 -109 52 -55 0 -65 11 -62 70 2 45 -2 55 -28 82
-19 20 -36 28 -46 24 -14 -5 -16 -20 -13 -93 l3 -88 -30 -5 c-23 -4 -31 -11
-33 -30 -2 -14 -7 -29 -12 -35 -21 -27 -32 -180 -38 -530 l-7 -380 -45 -22
c-38 -19 -55 -22 -102 -17 -37 4 -58 3 -58 -4 0 -5 11 -13 24 -16 44 -11 44
-66 -1 -66 -13 0 -43 -4 -66 -9 -23 -6 -55 -13 -70 -16 -25 -5 -28 -9 -22 -35
6 -26 3 -30 -41 -49 -26 -12 -64 -24 -85 -27 -21 -4 -47 -13 -56 -20 -17 -13
-17 -14 5 -20 16 -5 22 -13 20 -28 -3 -18 -9 -21 -46 -18 l-42 3 0 -40 0 -41
-90 0 c-49 0 -100 -5 -113 -11 -31 -14 -37 -46 -37 -191 0 -99 -12 -146 -26
-101 -3 10 -13 34 -23 53 -18 35 -48 127 -53 165 -2 11 -11 21 -21 23 -13 3
-17 -4 -17 -32 0 -25 -6 -38 -20 -46 -20 -11 -20 -21 -20 -725 l0 -715 6400 0
6400 0 0 920 0 920 -21 0 c-76 0 -166 -66 -204 -149 -19 -43 -38 -53 -49 -25
-3 9 -6 135 -6 280 l0 264 -24 10 c-32 12 -36 28 -35 150 3 379 5 446 11 456
5 7 6 146 3 310 -3 165 -5 334 -5 377 0 71 -2 77 -20 77 -12 0 -34 7 -50 15
-23 12 -46 13 -129 5 -55 -5 -111 -12 -123 -15 -13 -3 -55 0 -94 8 -41 8 -82
10 -100 5 -16 -4 -55 -9 -86 -11 -32 -2 -60 -6 -63 -9 -4 -3 -7 -118 -8 -254
l-2 -249 -40 -7 c-22 -3 -58 -10 -81 -13 l-41 -7 -6 -150 c-5 -122 -10 -154
-23 -169 -16 -18 -17 -84 -5 -1045 9 -755 10 -1029 2 -1034 -7 -3 -42 -2 -79
4 l-67 11 -6 200 c-4 110 -7 212 -8 228 0 17 -7 27 -16 27 -8 0 -25 10 -37 22
-13 13 -32 28 -43 33 -19 10 -20 24 -27 195 -7 206 -12 249 -36 300 -11 25
-18 84 -24 215 -10 240 -15 275 -38 275 -25 0 -34 15 -65 102 -15 43 -34 79
-43 82 -10 3 -22 8 -28 11 -7 4 -14 -7 -17 -25 -12 -57 -58 -142 -74 -136 -8
3 -25 3 -39 0 -23 -6 -24 -10 -24 -84 0 -50 -4 -81 -13 -88 -8 -7 -104 -8
-307 -2 l-295 9 -25 -25 -25 -24 2 -560 c2 -488 0 -562 -13 -575 -18 -17 -47
-6 -59 22 -4 10 -9 86 -12 169 l-6 151 -28 10 c-18 7 -29 18 -29 31 0 28 -19
40 -70 44 l-45 3 -7 45 c-3 25 -11 331 -17 680 -6 349 -16 835 -21 1080 -6
245 -11 528 -11 630 -2 226 -5 244 -42 248 -30 4 -37 15 -58 95 -9 39 -16 48
-38 53 -72 14 -73 15 -102 103 -16 46 -34 111 -40 145 -7 33 -17 68 -24 76 -7
8 -14 21 -16 28 -2 7 -12 -6 -22 -28z"/>
</g>
</svg>
